# xmcd
#
# Track frame offsets:
#	150
#	14587
#	26302
#	43990
#	58687
#	73727
#	95862
#	111110
#	128705
#	145025
#	163500
#	176165
#	197805
#	213182
#	227857
#	246467
#	260457
#	277465
#	291520
#	306717
#
# Disc length: 4300
#
# Revision: 4
# Processed by: cddbd v1.5.1PL0 Copyright (c) Steve Scherf et al.
# Submitted via: audiograbber 1.80
# Normalized: r3:DSETVAR1
#
DISCID=4810ca14
DTITLE=Various Artist - I Love Country Hits Of The 90's Vol. 4
DYEAR=1900
DGENRE=
TTITLE0=Randy Travis - Look Heart, No Hands
TTITLE1=Chris LeDoux and Garth Brooks - Whatcha Gonna Do With A Cowboy
TTITLE2=John Berry - Your Love Amazes Me
TTITLE3=Tanya Tucker and T. Graham Brown - Don't Go Out
TTITLE4=Glen Campbell - Unconditional Love
TTITLE5=Ronnie Milsap - True Believer
TTITLE6=Billy Dean - Somewhere In My Broken Heart
TTITLE7=Dan Seals - Love On Arrival
TTITLE8=John Anderson - I Wish I Could Have Been There
TTITLE9=Eddie Rabbit - Runnin' With The Wind
TTITLE10=Lorrie Morgan - What Part Of No
TTITLE11=Boy Howdy - A Cowboy's Born With A Broken Heart
TTITLE12=Confederate Railroad - Jesus And Mama
TTITLE13=Carlene Carter - Every Little Thing
TTITLE14=George Ducas - Lipstick Promises
TTITLE15=Ricky Lynn Gregg - If I Had A Cheatin' Heart
TTITLE16=Little Texas - You And Forever And Me
TTITLE17=Hal Ketchum - Hearts Are Gonna Roll
TTITLE18=Pirates Of The Mississippi - Til I'm Holding You Again
TTITLE19=Nobody Wins - Radney Foster
EXTD=
EXTT0=
EXTT1=
EXTT2=
EXTT3=
EXTT4=
EXTT5=
EXTT6=
EXTT7=
EXTT8=
EXTT9=
EXTT10=
EXTT11=
EXTT12=
EXTT13=
EXTT14=
EXTT15=
EXTT16=
EXTT17=
EXTT18=
EXTT19=
PLAYORDER=
